<svg xmlns="http://www.w3.org/2000/svg" xmlns:xlink="http://www.w3.org/1999/xlink" width="500" zoomAndPan="magnify" viewBox="0 0 375 374.999991" height="500" preserveAspectRatio="xMidYMid meet" version="1.0"><defs><clipPath id="fcd3048628"><path d="M 77 180.261719 L 298 180.261719 L 298 195.261719 L 77 195.261719 Z M 77 180.261719 " clip-rule="nonzero"/></clipPath><clipPath id="50a9e018d9"><path d="M 77 134.953125 L 298 134.953125 L 298 149.953125 L 77 149.953125 Z M 77 134.953125 " clip-rule="nonzero"/></clipPath><clipPath id="785d9795d0"><path d="M 77 225.332031 L 298 225.332031 L 298 240.332031 L 77 240.332031 Z M 77 225.332031 " clip-rule="nonzero"/></clipPath></defs><g clip-path="url(#fcd3048628)"><path fill="#c2e3e0" d="M 290.605469 180.261719 L 84.558594 180.261719 C 80.492188 180.261719 77.199219 183.621094 77.199219 187.761719 C 77.199219 191.902344 80.492188 195.261719 84.558594 195.261719 L 290.605469 195.261719 C 294.667969 195.261719 297.964844 191.902344 297.964844 187.761719 C 297.964844 183.621094 294.667969 180.261719 290.605469 180.261719 Z M 290.605469 180.261719 " fill-opacity="1" fill-rule="nonzero"/></g><g clip-path="url(#50a9e018d9)"><path fill="#c2e3e0" d="M 290.605469 134.953125 L 84.558594 134.953125 C 80.492188 134.953125 77.199219 138.3125 77.199219 142.453125 C 77.199219 146.59375 80.492188 149.953125 84.558594 149.953125 L 290.605469 149.953125 C 294.667969 149.953125 297.964844 146.59375 297.964844 142.453125 C 297.964844 138.3125 294.667969 134.953125 290.605469 134.953125 Z M 290.605469 134.953125 " fill-opacity="1" fill-rule="nonzero"/></g><g clip-path="url(#785d9795d0)"><path fill="#c2e3e0" d="M 290.605469 225.332031 L 84.558594 225.332031 C 80.492188 225.332031 77.199219 228.6875 77.199219 232.832031 C 77.199219 236.972656 80.492188 240.332031 84.558594 240.332031 L 290.605469 240.332031 C 294.667969 240.332031 297.964844 236.972656 297.964844 232.832031 C 297.964844 228.6875 294.667969 225.332031 290.605469 225.332031 Z M 290.605469 225.332031 " fill-opacity="1" fill-rule="nonzero"/></g></svg>